<svg xmlns="http://www.w3.org/2000/svg" width="96" height="68" fill="none"><path stroke="#824EEB" d="M68.76 16.35a366.174 366.174 0 0 0-6.467 16.224 447.447 447.447 0 0 0-5.673 16.222l-.003.007a327.993 327.993 0 0 0-4.356 15.173l-.055.21.117.184 1.846 2.898.147.232H81.25l.064-.425c.702-4.65 1.536-9.696 2.502-15.137a780.562 780.562 0 0 1 3.161-16.72v-.002a1219.645 1219.645 0 0 1 3.557-17.378M68.76 16.35v-.001l.46.196-.46-.194Zm0 0A744.008 744.008 0 0 1 75.486.796L75.618.5h19.02l-.153.62a974.954 974.954 0 0 0-3.95 16.718m0 0v-.004l-.49-.103.488.11.001-.003ZM94 1l-.123.5H94V1Zm0 0-.486-.12-.029.12H94ZM3.424 67.269l.147.231h26.934l.064-.425c.702-4.65 1.536-9.696 2.502-15.137a780.562 780.562 0 0 1 3.161-16.72v-.002a1219.685 1219.685 0 0 1 3.557-17.378A975.171 975.171 0 0 1 43.74 1.119L43.893.5h-19.02l-.132.296a744.215 744.215 0 0 0-6.726 15.554 366.174 366.174 0 0 0-6.467 16.224 447.486 447.486 0 0 0-5.674 16.222l-.002.007a327.955 327.955 0 0 0-4.356 15.173l-.055.21.117.184 1.846 2.898Z"/></svg>